<svg id="Capa_1" enable-background="new 0 0 512 512" viewBox="0 0 512 512" xmlns="http://www.w3.org/2000/svg"><g><path d="m466 256c0-66.275-53.725-120-120-120h-.928c39.994 29.778 60.928 77.232 60.928 120v150h-45l75 106 76-106h-46z"/><path d="m0 106h46v150c0 66.275 53.725 120 120 120h.928c-39.994-29.778-60.928-77.232-60.928-120v-150h45l-75-106z"/><path d="m256 136c-66.275 0-120 53.725-120 120 0 66.273 53.725 120 120 120s120-53.727 120-120c0-66.275-53.725-120-120-120zm0 105c24.814 0 45 20.186 45 45 0 19.53-12.578 36.024-30 42.237v17.763h-30v-17.763c-17.422-6.213-30-22.707-30-42.237h30c0 8.276 6.724 15 15 15s15-6.724 15-15-6.724-15-15-15c-24.814 0-45-20.186-45-45 0-19.53 12.578-36.024 30-42.237v-17.763h30v17.763c17.422 6.213 30 22.707 30 42.237h-30c0-8.276-6.724-15-15-15s-15 6.724-15 15 6.724 15 15 15z"/></g></svg>