<svg id="Layer_3" enable-background="new 0 0 64 64" height="inherit" viewBox="0 0 64 64" width="inherit" xmlns="http://www.w3.org/2000/svg"><path d="m25 45.73v-8.73h-1c-2.757 0-5-2.243-5-5v-10c0-.552.448-1 1-1h4c.552 0 1 .448 1 1v9h7c-2.206 0-4-1.794-4-4v-2c0-2.206 1.794-4 4-4s4 1.794 4 4v2c0 2.206-1.794 4-4 4h7v-9c0-.552.448-1 1-1h4c.552 0 1 .448 1 1v10c0 2.757-2.243 5-5 5h-1v8.73c2.397-.898 4.552-2.246 6.394-3.922l-2.101-2.101 1.414-1.414 2.101 2.101c3.03-3.363 4.912-7.723 5.15-12.394h-3.958v-2h3.949c-.237-4.759-2.137-9.077-5.141-12.395l-2.102 2.102-1.414-1.414 2.102-2.102c-3.317-3.004-7.635-4.903-12.394-5.14v3.949h-2v-3.949c-4.759.237-9.077 2.137-12.395 5.141l2.102 2.102-1.414 1.414-2.102-2.102c-3.004 3.318-4.904 7.635-5.141 12.395h3.95v2h-3.958c.238 4.671 2.121 9.031 5.15 12.394l2.101-2.101 1.414 1.414-2.101 2.101c1.842 1.676 3.997 3.023 6.394 3.921z"/><path d="m37 43v-7c0-.552.448-1 1-1h2c1.654 0 3-1.346 3-3v-9h-2v9c0 .552-.448 1-1 1h-16c-.552 0-1-.448-1-1v-9h-2v9c0 1.654 1.346 3 3 3h2c.552 0 1 .448 1 1v7z"/><path d="m32 23c-1.103 0-2 .897-2 2v2c0 1.103.897 2 2 2s2-.897 2-2v-2c0-1.103-.897-2-2-2z"/><path d="m35 57h2v-12h-10v12h2v-9c0-.552.448-1 1-1h4c.552 0 1 .448 1 1z"/><path d="m32 3c-13.233 0-24 10.766-24 24 0 10.641 6.932 19.886 17 22.943v-2.099c-8.865-2.982-15-11.435-15-20.844 0-12.131 9.869-22 22-22s22 9.869 22 22c0 9.409-6.135 17.862-15 20.843v2.099c10.068-3.056 17-12.301 17-22.942 0-13.234-10.767-24-24-24z"/><path d="m25 60v1h4v-2h-3c-.551 0-1 .449-1 1z"/><path d="m38 59h-3v2h4v-1c0-.551-.449-1-1-1z"/></svg>