
<?xml version="1.0" encoding="UTF-8" standalone="no"?>
<!-- Created with Inkscape (http://www.inkscape.org/) -->

<svg
   version="1.1"
   id="svg3144"
   xml:space="preserve"
   viewBox="0 0 682.66669 682.66669"
   xmlns="http://www.w3.org/2000/svg"
   xmlns:svg="http://www.w3.org/2000/svg"><defs
     id="defs3148"><clipPath
       clipPathUnits="userSpaceOnUse"
       id="clipPath3158"><path
         d="M 0,512 H 512 V 0 H 0 Z"
         id="path3156" /></clipPath></defs><g
     id="g3150"
     transform="matrix(1.3333333,0,0,-1.3333333,0,682.66667)"><g
       id="g3152"><g
         id="g3154"
         clip-path="url(#clipPath3158)"><g
           id="g3160"
           transform="translate(164.3257,300.8193)"><path
             d="m 0,0 -151.986,151.986 c -6.47,6.469 -6.47,16.958 0,23.427 l 23.427,23.428 c 6.47,6.47 16.959,6.47 23.428,0 L 46.855,46.855 V 0 Z"
             style="fill:none;stroke-width:15;stroke-linecap:round;stroke-linejoin:round;stroke-miterlimit:10;stroke-dasharray:none;stroke-opacity:1"
             id="path3162" /></g><g
           id="g3164"
           transform="translate(211.1807,300.8193)"><path
             d="M 0,0 11.714,-11.714"
             style="fill:none;stroke-width:15;stroke-linecap:round;stroke-linejoin:round;stroke-miterlimit:10;stroke-dasharray:none;stroke-opacity:1"
             id="path3166" /></g><g
           id="g3168"
           transform="translate(82.6226,476.2324)"><path
             d="M 0,0 -46.855,-46.854"
             style="fill:none;stroke-width:15;stroke-linecap:round;stroke-linejoin:round;stroke-miterlimit:10;stroke-dasharray:none;stroke-opacity:1"
             id="path3170" /></g><g
           id="g3172"
           transform="translate(211.1807,347.6748)"><path
             d="M 0,0 -46.855,-46.855"
             style="fill:none;stroke-width:15;stroke-linecap:round;stroke-linejoin:round;stroke-miterlimit:10;stroke-dasharray:none;stroke-opacity:1"
             id="path3174" /></g><g
           id="g3176"
           transform="translate(59.1948,452.8057)"><path
             d="M 0,0 128.558,-128.559"
             style="fill:none;stroke-width:15;stroke-linecap:round;stroke-linejoin:round;stroke-miterlimit:10;stroke-dasharray:none;stroke-opacity:1"
             id="path3178" /></g><g
           id="g3180"
           transform="translate(399.2324,7.5127)"><path
             d="m 0,0 h -110.101 l 0.001,33.132 c 0,18.298 14.834,33.131 33.131,33.131 H 105.255 V 33.132 C 105.255,14.833 90.422,0 72.124,0 H 30"
             style="fill:none;stroke-width:15;stroke-linecap:round;stroke-linejoin:round;stroke-miterlimit:10;stroke-dasharray:none;stroke-opacity:1"
             id="path3182" /></g><g
           id="g3184"
           transform="translate(289.1318,40.6445)"><path
             d="m 0,0 0.001,314.751 c 0,18.297 14.834,33.13 33.131,33.13 h 149.093 c 18.297,0 33.13,-14.833 33.13,-33.131 V 33.131"
             style="fill:none;stroke-width:15;stroke-linecap:round;stroke-linejoin:round;stroke-miterlimit:10;stroke-dasharray:none;stroke-opacity:1"
             id="path3186" /></g><g
           id="g3188"
           transform="translate(438.2246,40.6445)"><path
             d="M 0,0 H -149.092"
             style="fill:none;stroke-width:15;stroke-linecap:round;stroke-linejoin:round;stroke-miterlimit:10;stroke-dasharray:none;stroke-opacity:1"
             id="path3190" /></g><g
           id="g3192"
           transform="translate(371.9609,338.8281)"><path
             d="M 0,0 H 49.697"
             style="fill:none;stroke-width:15;stroke-linecap:round;stroke-linejoin:round;stroke-miterlimit:10;stroke-dasharray:none;stroke-opacity:1"
             id="path3194" /></g><g
           id="g3196"
           transform="translate(338.8291,289.1309)"><path
             d="M 0,0 H 115.961"
             style="fill:none;stroke-width:15;stroke-linecap:round;stroke-linejoin:round;stroke-miterlimit:10;stroke-dasharray:none;stroke-opacity:1"
             id="path3198" /></g><g
           id="g3200"
           transform="translate(338.8291,256)"><path
             d="M 0,0 H 115.961"
             style="fill:none;stroke-width:15;stroke-linecap:round;stroke-linejoin:round;stroke-miterlimit:10;stroke-dasharray:none;stroke-opacity:1"
             id="path3202" /></g><g
           id="g3204"
           transform="translate(338.8291,222.8682)"><path
             d="M 0,0 H 115.961"
             style="fill:none;stroke-width:15;stroke-linecap:round;stroke-linejoin:round;stroke-miterlimit:10;stroke-dasharray:none;stroke-opacity:1"
             id="path3206" /></g><g
           id="g3208"
           transform="translate(338.8291,189.7363)"><path
             d="M 0,0 H 115.961"
             style="fill:none;stroke-width:15;stroke-linecap:round;stroke-linejoin:round;stroke-miterlimit:10;stroke-dasharray:none;stroke-opacity:1"
             id="path3210" /></g><g
           id="g3212"
           transform="translate(355.3955,156.6045)"><path
             d="M 0,0 H 99.395"
             style="fill:none;stroke-width:15;stroke-linecap:round;stroke-linejoin:round;stroke-miterlimit:10;stroke-dasharray:none;stroke-opacity:1"
             id="path3214" /></g><g
           id="g3216"
           transform="translate(289.1318,40.6445)"><path
             d="M 0,0 C -0.001,18.298 -14.834,33.131 -33.132,33.131 H -215.355 V 0 c 0,-18.299 14.833,-33.132 33.131,-33.132 H 0 Z"
             style="fill:none;stroke-width:15;stroke-linecap:round;stroke-linejoin:round;stroke-miterlimit:10;stroke-dasharray:none;stroke-opacity:1"
             id="path3218" /></g><g
           id="g3220"
           transform="translate(73.7764,191.2998)"><path
             d="M 0,0 V -117.524"
             style="fill:none;stroke-width:15;stroke-linecap:round;stroke-linejoin:round;stroke-miterlimit:10;stroke-dasharray:none;stroke-opacity:1"
             id="path3222" /></g><g
           id="g3224"
           transform="translate(84.9448,380.2002)"><path
             d="M 0,0 C -6.85,-6.069 -11.168,-14.934 -11.168,-24.806 V -158.9"
             style="fill:none;stroke-width:15;stroke-linecap:round;stroke-linejoin:round;stroke-miterlimit:10;stroke-dasharray:none;stroke-opacity:1"
             id="path3226" /></g><g
           id="g3228"
           transform="translate(289.1318,40.6445)"><path
             d="m 0,0 v 314.751 c -0.001,18.297 -14.834,33.13 -33.132,33.13 h -85.671"
             style="fill:none;stroke-width:15;stroke-linecap:round;stroke-linejoin:round;stroke-miterlimit:10;stroke-dasharray:none;stroke-opacity:1"
             id="path3230" /></g><g
           id="g3232"
           transform="translate(140.0396,40.6445)"><path
             d="M 0,0 H 149.092"
             style="fill:none;stroke-width:15;stroke-linecap:round;stroke-linejoin:round;stroke-miterlimit:10;stroke-dasharray:none;stroke-opacity:1"
             id="path3234" /></g><g
           id="g3236"
           transform="translate(239.4346,289.1309)"><path
             d="M 0,0 H -16.54"
             style="fill:none;stroke-width:15;stroke-linecap:round;stroke-linejoin:round;stroke-miterlimit:10;stroke-dasharray:none;stroke-opacity:1"
             id="path3238" /></g></g></g></g></svg>
