<svg id="Layer_1" enable-background="new 0 0 512 512" viewBox="0 0 512 512" xmlns="http://www.w3.org/2000/svg"><path d="m140.93 100.41c0-4.42 3.58-8.01 8.01-8.01h153.66c4.42 0 8.01 3.58 8.01 8.01s-3.58 8.01-8.01 8.01h-153.66c-4.43-.01-8.01-3.59-8.01-8.01zm8.01 62.57h153.66c4.42 0 8.01-3.58 8.01-8.01s-3.58-8.01-8.01-8.01h-153.66c-4.42 0-8.01 3.58-8.01 8.01s3.58 8.01 8.01 8.01zm0 54.57h153.66c4.42 0 8.01-3.58 8.01-8.01s-3.58-8.01-8.01-8.01h-153.66c-4.42 0-8.01 3.58-8.01 8.01s3.58 8.01 8.01 8.01zm0 54.57h112.88c4.42 0 8.01-3.58 8.01-8.01s-3.58-8.01-8.01-8.01h-112.88c-4.42 0-8.01 3.58-8.01 8.01s3.58 8.01 8.01 8.01zm0 54.56h89.06c4.42 0 8.01-3.58 8.01-8.01s-3.58-8.01-8.01-8.01h-89.06c-4.42 0-8.01 3.58-8.01 8.01s3.58 8.01 8.01 8.01zm0 54.57h76.08c4.42 0 8.01-3.58 8.01-8.01s-3.58-8.01-8.01-8.01h-76.08c-4.42 0-8.01 3.58-8.01 8.01s3.58 8.01 8.01 8.01zm333.14-205.62-74.96 74.96v191.54c0 17.11-13.92 31.03-31.03 31.03h-244.05c-17.11 0-31.03-13.92-31.03-31.03v-7.36h-7.36c-17.11 0-31.03-13.92-31.03-31.02v-47.38h-18.03c-11.64 0-21.1-9.47-21.1-21.1s9.47-21.1 21.1-21.1h18.04v-23.41h-18.04c-11.64 0-21.1-9.47-21.1-21.1s9.47-21.1 21.1-21.1h18.04v-23.41h-18.04c-11.64 0-21.1-9.47-21.1-21.1s9.47-21.1 21.1-21.1h18.04v-23.41h-18.04c-11.64 0-21.1-9.47-21.1-21.1s9.47-21.1 21.1-21.1h18.04v-47.43c0-17.12 13.92-31.05 31.03-31.05h244.06c17.11 0 31.03 13.93 31.03 31.05v6.87l7.84.48c17.34 1.05 30.76 14.72 30.54 31.12l-.74 52.34 13.38-13.38s0 0 0 0l17.01-17.01c8.58-8.58 22.55-8.58 31.14 0l14.17 14.17c8.58 8.58 8.58 22.55-.01 31.13zm-33.99 11.35-22.66-22.66-132.82 132.81 22.66 22.66 39.8-39.8.01-.01 38.37-38.37.01-.01zm-166.61 143.94 17.99-4.28-13.71-13.71zm87.27-238.1v105.53l21.39-21.39.97-68.81c.1-7.83-6.7-14.38-15.5-14.91zm-324.16 50.66h52.1c2.76 0 5.09-2.33 5.09-5.09s-2.33-5.09-5.09-5.09h-52.1c-2.76 0-5.09 2.33-5.09 5.09s2.33 5.09 5.09 5.09zm0 65.62h52.1c2.76 0 5.09-2.33 5.09-5.09s-2.33-5.09-5.09-5.09h-52.1c-2.76 0-5.09 2.33-5.09 5.09s2.33 5.09 5.09 5.09zm0 65.62h52.1c2.76 0 5.09-2.33 5.09-5.09s-2.33-5.09-5.09-5.09h-52.1c-2.76 0-5.09 2.33-5.09 5.09s2.33 5.09 5.09 5.09zm0 65.62h52.1c2.76 0 5.09-2.33 5.09-5.09 0-2.81-2.28-5.09-5.09-5.09h-52.1c-2.81 0-5.09 2.28-5.09 5.09 0 2.76 2.33 5.09 5.09 5.09zm49.07 78.41h244.06c8.28 0 15.01-6.73 15.01-15.01v-98.76l-31.8 31.8c-1.05 1.05-2.37 1.79-3.81 2.13l-44.59 10.6c-.61.15-1.24.22-1.85.22-2.1 0-4.14-.83-5.66-2.35-1.97-1.97-2.77-4.81-2.13-7.51l10.6-44.59c.34-1.44 1.08-2.76 2.13-3.81l77.11-77.11v-144.45c0-8.29-6.73-15.04-15.01-15.04h-244.06c-8.28 0-15.01 6.75-15.01 15.04v47.38h18.04c11.64 0 21.1 9.47 21.1 21.1s-9.47 21.1-21.1 21.1h-18.04v23.41h18.04c11.64 0 21.1 9.47 21.1 21.1s-9.47 21.1-21.1 21.1h-18.04v23.41h18.04c11.64 0 21.1 9.47 21.1 21.1s-9.47 21.1-21.1 21.1h-18.04v23.41h18.04c11.64 0 21.1 9.47 21.1 21.1s-9.47 21.1-21.1 21.1h-18.04v47.38c0 8.32 6.73 15.05 15.01 15.05zm297.45-152.15-22.37 22.36v114.78c0 17.11-13.92 31.02-31.03 31.02h-220.68v7.36c0 8.28 6.73 15.01 15.01 15.01h244.06c8.28 0 15.01-6.73 15.01-15.01zm79.65-110.78-14.17-14.17c-2.3-2.3-6.19-2.3-8.49 0l-11.35 11.35 22.66 22.66 11.35-11.35c2.3-2.3 2.3-6.19 0-8.49z"/></svg>