<svg clip-rule="evenodd" fill-rule="evenodd" height="inherit" image-rendering="optimizeQuality" shape-rendering="geometricPrecision" text-rendering="geometricPrecision" viewBox="0 0 173.397 173.397" width="inherit" xmlns="http://www.w3.org/2000/svg"><g id="Layer_x0020_1"><circle cx="86.699" cy="86.699" fill="inherit" r="84.667"/><path d="m84.7804 141.127c-11.2603-1.7264-20.8546-11.3638-16.2074-31.818 4.707 6.8251 6.4186 3.2196 6.4186 3.2196.2852-23.1797 17.8295-28.9747 17.8295-28.9747-5.25 11.8493 5.1388 12.1766 5.8481 25.6265 4.2791-2.1893 5.8481-4.636 5.8481-4.636 14.1685 19.0507 3.6639 32.682-9.7392 36.1795 21.4672-2.7537 39.924-20.932 31.0841-59.84-8.8846 12.8826-12.1153 6.077-12.1153 6.077-.5384-43.7527-33.654-54.6911-33.654-54.6911 9.9095 22.3662-9.6998 22.984-11.0387 48.3711-8.0768-4.1322-11.0384-8.7505-11.0384-8.7505-29.648 39.8658-2.0619 67.1622 26.7646 69.2366z" fill="#fff"/></g></svg>