<svg fill="current" height="512" viewBox="0 0 24 24" width="512" xmlns="http://www.w3.org/2000/svg"><g clip-rule="evenodd" fill="current" fill-rule="evenodd"><path d="m3 12c0-.5523.44772-1 1-1h8c.5523 0 1 .4477 1 1s-.4477 1-1 1h-8c-.55228 0-1-.4477-1-1z"/><path d="m4 5c.55228 0 1 .44772 1 1v12c0 .5523-.44772 1-1 1s-1-.4477-1-1v-12c0-.55228.44772-1 1-1z"/><path d="m12 5c.5523 0 1 .44772 1 1v12c0 .5523-.4477 1-1 1s-1-.4477-1-1v-12c0-.55228.4477-1 1-1z"/><path d="m20.472 9.11833c.3251.17402.5281.51288.5281.88167v8c0 .5523-.4477 1-1 1s-1-.4477-1-1v-6.1315l-1.4453.9636c-.4595.3063-1.0804.1821-1.3867-.2774-.3064-.4595-.1822-1.0804.2773-1.3867l3-2.00005c.3069-.20457.7014-.22364 1.0266-.04962z"/></g></svg>