<svg fill="none" height="512" viewBox="0 0 24 24" width="512" xmlns="http://www.w3.org/2000/svg"><g clip-rule="evenodd" fill="current" fill-rule="evenodd"><path d="m3 12c0-.5523.44772-1 1-1h8c.5523 0 1 .4477 1 1s-.4477 1-1 1h-8c-.55228 0-1-.4477-1-1z"/><path d="m4 5c.55228 0 1 .44772 1 1v12c0 .5523-.44772 1-1 1s-1-.4477-1-1v-12c0-.55228.44772-1 1-1z"/><path d="m12 5c.5523 0 1 .44772 1 1v12c0 .5523-.4477 1-1 1s-1-.4477-1-1v-12c0-.55228.4477-1 1-1z"/><path d="m20.0663 9.42662c1.1.36666 1.9338 1.33478 1.9338 2.57368 0 1.0161-.3554 1.7621-.9037 2.3332-.4181.4355-.9572.7659-1.3757 1.0223-.067.041-.1308.0801-.1906.1175-.4872.3045-.8428.5634-1.0963.9121-.1162.1597-.2238.3569-.3028.6149h2.8691c.5522 0 1 .4477 1 1s-.4478 1-1 1h-4c-.5523 0-1-.4477-1-1 0-1.1817.3006-2.0823.8162-2.7913.4965-.6826 1.1409-1.1112 1.6538-1.4317.0829-.0518.1612-.1003.2354-.1462.4323-.2677.722-.4471.9482-.6827.2017-.2102.3464-.4641.3464-.9481 0-.2611-.1662-.543-.5663-.6763-.3883-.1295-1.0508-.1109-1.8337.4763-.4419.3314-1.0687.2418-1.4-.2-.3314-.4418-.2419-1.0686.2-1.4 1.217-.91275 2.5546-1.14422 3.6662-.77368z"/></g></svg>