<svg id="layer_1" enable-background="new 0 0 32 32" viewBox="0 0 32 32" xmlns="http://www.w3.org/2000/svg"><path d="m3.9257812 24.1850586c0 2.675293 2.1767578 4.8520508 4.8515625 4.8520508h9.1875c.5527344 0 1-.4477539 1-1 0-.2763062-.1120605-.5263672-.2931519-.7073364-.1809082-.1807861-.4306641-.2926636-.7068481-.2926636h-9.1875c-1.5722656 0-2.8515625-1.2792969-2.8515625-2.8520508v-17.3330078c0-1.5727539 1.2792969-2.8520508 2.8515626-2.8520508h13.4814453c1.5732422 0 2.8525391 1.2792969 2.8525391 2.8520508v13.0380859c0 .2761841.1118774.5261841.2928467.7071533.1809082.1809082.4308472.2928467.7071533.2928467.5527344 0 1-.4477539 1-1v-13.0380859c-.0000001-2.675293-2.1767579-4.8520508-4.8525391-4.8520508h-13.4814453c-2.6748047 0-4.8515626 2.1767578-4.8515626 4.8520508z"/><path d="m21.2958984 14.5185547h-7.703125c-.5527344 0-1 .4477539-1 1s.4472656 1 1 1h7.703125c.5527344 0 1-.4477539 1-1s-.4472656-1-1-1z"/><path d="m21.2958984 9.7036133h-7.703125c-.5527344 0-1 .4477539-1 1s.4472656 1 1 1h7.703125c.5527344 0 1-.4477539 1-1s-.4472656-1-1-1z"/><path d="m21.2958984 19.3334961h-7.703125c-.5527344 0-1 .4477539-1 1s.4472656 1 1 1h7.703125c.5527344 0 1-.4477539 1-1s-.4472656-1-1-1z"/><path d="m9.7607422 9.7036133h-.0097656c-.5517578 0-.9951172.4477539-.9951172 1s.453125 1 1.0048828 1c.5527344 0 1-.4477539 1-1s-.4472656-1-1-1z"/><path d="m9.7607422 14.5185547h-.0097656c-.5517578 0-.9951172.4477539-.9951172 1s.453125 1 1.0048828 1c.5527344 0 1-.4477539 1-1s-.4472656-1-1-1z"/><path d="m9.7607422 19.3334961h-.0097656c-.5517578 0-.9951172.4477539-.9951172 1s.453125 1 1.0048828 1c.5527344 0 1-.4477539 1-1s-.4472656-1-1-1z"/><path d="m23.4614868 22.539978c-.1685791.1790161-.2759399.4168701-.2759399.6821899v1.8891602h-1.8896484c-.2648926 0-.5020142.1071777-.6808472.2750854-.1949768.1850147-.3185596.4377747-.3191528.7249146 0 .5522461.4472656 1 1 1h1.8896484v1.8886719c0 .5522461.4472656 1 1 1s1-.4477539 1-1v-1.8886719h1.8886719c.5527344 0 1-.4477539 1-1s-.4472656-1-1-1h-1.8886719v-1.8891601c0-.5522461-.4472656-1-1-1-.2868576.0005569-.5392342.1235504-.7240601.31781z"/></svg>