<svg fill="none" height="inherit" viewBox="0 0 22 22" width="inherit" xmlns="http://www.w3.org/2000/svg"><g clip-rule="evenodd" fill="inherit" fill-rule="evenodd"><path d="m11 .25c.4142 0 .75.335786.75.75v3c0 .41421-.3358.75-.75.75s-.75-.33579-.75-.75v-3c0-.414214.3358-.75.75-.75z" opacity=".4"/><path d="m11 17.25c.4142 0 .75.3358.75.75v3c0 .4142-.3358.75-.75.75s-.75-.3358-.75-.75v-3c0-.4142.3358-.75.75-.75z" opacity=".4"/><path d="m3.39849 3.39838c.2929-.29289.76777-.29289 1.06066 0l2.12132 2.12132c.2929.29289.2929.76777 0 1.06066-.29289.29289-.76776.29289-1.06066 0l-2.12132-2.12132c-.29289-.29289-.29289-.76777 0-1.06066z" opacity=".4"/><path d="m15.4195 15.4194c.2929-.2929.7678-.2929 1.0607 0l2.1213 2.1213c.2929.2929.2929.7678 0 1.0607s-.7678.2929-1.0607 0l-2.1213-2.1214c-.2929-.2929-.2929-.7677 0-1.0606z" opacity=".4"/><path d="m21.75 11c0 .4142-.3358.75-.75.75h-3c-.4142 0-.75-.3358-.75-.75s.3358-.75.75-.75h3c.4142 0 .75.3358.75.75z" opacity=".4"/><path d="m4.75 11c0 .4142-.33579.75-.75.75h-3c-.414214 0-.75-.3358-.75-.75s.335786-.75.75-.75h3c.41421 0 .75.3358.75.75z" opacity=".4"/><path d="m18.6014 3.39849c.2929.2929.2929.76777 0 1.06066l-2.1213 2.12132c-.2929.2929-.7678.2929-1.0607 0-.2929-.29289-.2929-.76776 0-1.06066l2.1213-2.12132c.2929-.29289.7678-.29289 1.0607 0z"/><path d="m6.58062 15.4195c.2929.2929.2929.7678 0 1.0607l-2.12132 2.1213c-.29289.2929-.76776.2929-1.06066 0-.29289-.2929-.29289-.7678 0-1.0607l2.12132-2.1213c.2929-.2929.76777-.2929 1.06066 0z" opacity=".4"/></g></svg>