<?xml version="1.0" encoding="iso-8859-1"?>
<!-- Generator: Adobe Illustrator 19.0.0, SVG Export Plug-In . SVG Version: 6.00 Build 0)  -->
<svg version="1.1" id="Capa_1" xmlns="http://www.w3.org/2000/svg" xmlns:xlink="http://www.w3.org/1999/xlink" x="0px" y="0px"
	 viewBox="0 0 512 512" style="enable-background:new 0 0 512 512;" xml:space="preserve">
<g>
	<g>
		<path d="M298.462,33.641C266.801,12.25,229.789,0.944,191.428,0.944C85.875,0.944,0,86.818,0,192.372
			s85.875,191.428,191.428,191.428c4.208,0,7.619-3.411,7.619-7.619c0-4.208-3.41-7.619-7.619-7.619
			c-97.152,0-176.191-79.039-176.191-176.191S94.277,16.182,191.428,16.182c35.308,0,69.37,10.403,98.505,30.087
			c3.487,2.356,8.222,1.438,10.578-2.048C302.866,40.733,301.95,35.997,298.462,33.641z"/>
	</g>
</g>
<g>
	<g>
		<path d="M300.212,340.745c-2.35-3.492-7.084-4.419-10.574-2.069c-19.395,13.045-40.814,21.962-63.665,26.503
			c-4.127,0.82-6.808,4.83-5.987,8.958c0.72,3.626,3.903,6.136,7.465,6.136c0.492,0,0.991-0.048,1.493-0.148
			c24.841-4.936,48.122-14.627,69.199-28.805C301.634,348.972,302.56,344.237,300.212,340.745z"/>
	</g>
</g>
<g>
	<g>
		<path d="M299.672,293.227c-2.929-3.021-7.752-3.1-10.773-0.17c-26.286,25.469-60.855,39.456-97.451,39.456
			c-0.357,0-0.716-0.001-1.073-0.004c-37.032-0.276-71.851-14.853-98.043-41.045c-26.468-26.468-41.044-61.66-41.044-99.093
			c0-37.434,14.577-72.626,41.044-99.093c26.192-26.187,61.01-40.761,98.043-41.037c37.029-0.26,71.983,13.733,98.524,39.446
			c3.023,2.928,7.845,2.85,10.772-0.172c2.928-3.022,2.852-7.845-0.171-10.773c-29.43-28.511-68.21-44.019-109.24-43.739
			c-41.058,0.306-79.663,16.465-108.703,45.499C52.211,111.848,36.05,150.867,36.05,192.371c0,41.504,16.161,80.523,45.507,109.868
			c29.039,29.039,67.644,45.201,108.703,45.507c0.398,0.003,0.791,0.004,1.19,0.004c40.572,0,78.906-15.511,108.052-43.751
			C302.524,301.072,302.6,296.249,299.672,293.227z"/>
	</g>
</g>
<g>
	<g>
		<path d="M199.047,185.248v-56.117c15.813,2.784,27.68,14.043,27.68,27.477c0,4.208,3.411,7.619,7.619,7.619
			c4.208,0,7.619-3.411,7.619-7.619c0-21.699-18.654-39.726-42.918-42.89v-7.18c0-4.208-3.411-7.619-7.619-7.619
			s-7.619,3.411-7.619,7.619v7.18c-24.264,3.163-42.918,21.191-42.918,42.89s18.654,39.727,42.918,42.891v56.117
			c-15.812-2.785-27.68-14.044-27.68-27.478c0-4.208-3.411-7.619-7.619-7.619c-4.208,0-7.619,3.411-7.619,7.619
			c0,21.699,18.654,39.726,42.918,42.89v7.18c0,4.208,3.411,7.619,7.619,7.619s7.619-3.411,7.619-7.619v-7.18
			c24.264-3.163,42.918-21.191,42.918-42.89S223.311,188.411,199.047,185.248z M183.811,184.086
			c-15.813-2.785-27.68-14.044-27.68-27.478s11.867-24.693,27.68-27.478V184.086z M199.047,255.614v-54.956
			c15.813,2.786,27.68,14.044,27.68,27.478S214.86,252.829,199.047,255.614z"/>
	</g>
</g>
<g>
	<g>
		<path d="M511.466,386.299c-1.149-2.908-3.958-4.819-7.086-4.819h-48.033V260.395c0-4.208-3.41-7.619-7.619-7.619
			c-4.209,0-7.619,3.411-7.619,7.619v128.703c0,4.208,3.41,7.619,7.619,7.619h36.373l-102.795,96.281L279.51,396.717h36.373
			c4.209,0,7.619-3.411,7.619-7.619V16.182H441.11v213.736c0,4.208,3.41,7.619,7.619,7.619c4.209,0,7.619-3.411,7.619-7.619V8.563
			c0-4.208-3.41-7.619-7.619-7.619H315.882c-4.209,0-7.619,3.411-7.619,7.619v372.917h-48.033c-3.127,0-5.937,1.911-7.086,4.819
			c-1.149,2.908-0.404,6.223,1.877,8.36l122.076,114.339c1.465,1.372,3.336,2.058,5.208,2.058s3.743-0.686,5.208-2.058
			l122.075-114.34C511.872,392.522,512.616,389.206,511.466,386.299z"/>
	</g>
</g>
<g>
</g>
<g>
</g>
<g>
</g>
<g>
</g>
<g>
</g>
<g>
</g>
<g>
</g>
<g>
</g>
<g>
</g>
<g>
</g>
<g>
</g>
<g>
</g>
<g>
</g>
<g>
</g>
<g>
</g>
</svg>
