<svg id="Layer_1" height="current" viewBox="0 0 512 512" width="current" xmlns="http://www.w3.org/2000/svg" data-name="Layer 1"><path d="m466.643 103.5c-25.736-5.626-59.837-8.725-96.02-8.725-49.9 0-107.3 6.472-130.242 20.815a160.225 160.225 0 0 0 -79.156-20.815c-88.9 0-161.225 72.325-161.225 161.225s72.325 161.225 161.225 161.225a160.228 160.228 0 0 0 79.151-20.812c22.942 14.341 80.35 20.812 130.247 20.812 36.183 0 70.284-3.1 96.02-8.725 30.521-6.673 45.357-15.974 45.357-28.435v-248.131c0-12.461-14.836-21.761-45.357-28.434zm29.357 193.56c-.582.906-5.931 7.739-36.729 13.927-24.16 4.854-55.643 7.527-88.648 7.527a546.483 546.483 0 0 1 -59.515-3.112 160.405 160.405 0 0 0 11.341-59.402c0-2.061-.052-4.109-.129-6.151 15.387 1.29 31.582 1.954 48.3 1.954 36.183 0 70.284-3.1 96.02-8.725q18.489-4.042 29.357-9.406zm0-82.711c-.582.906-5.931 7.739-36.729 13.927-24.16 4.854-55.643 7.527-88.648 7.527-17.28 0-33.973-.717-49.727-2.129a160.29 160.29 0 0 0 -27.48-69.86c22.527 3.434 49.151 5.279 77.207 5.279 36.183 0 70.284-3.1 96.02-8.725q18.489-4.042 29.357-9.406zm-125.377-103.574c33 0 64.488 2.673 88.648 7.527 28.531 5.732 35.219 12.017 36.512 13.632-1.293 1.614-7.978 7.9-36.511 13.631-24.16 4.855-55.643 7.528-88.649 7.528-34.844 0-68.511-3.061-92.889-8.421a162.53 162.53 0 0 0 -21.827-19.08c19.273-7.881 60.644-14.817 114.716-14.817zm-354.623 145.225c0-80.077 65.147-145.225 145.225-145.225s145.224 65.148 145.224 145.225-65.149 145.225-145.224 145.225-145.225-65.148-145.225-145.225zm443.272 137.7c-24.16 4.855-55.643 7.528-88.649 7.528-54.069 0-95.442-6.935-114.719-14.815a162.369 162.369 0 0 0 48.168-55.725 552.156 552.156 0 0 0 66.551 3.829c36.183 0 70.284-3.1 96.02-8.725q18.489-4.043 29.357-9.406v63.384c-.586.912-5.946 7.743-36.728 13.93zm-205.547-137.7a8 8 0 0 1 -8 8h-169a8 8 0 0 1 0-16h169a8 8 0 0 1 8 8z"/></svg>