<svg id="Layer_1" viewBox="0 0 512 512" xmlns="http://www.w3.org/2000/svg" data-name="Layer 1"><path d="m466.643 103.5c-25.736-5.626-59.837-8.725-96.021-8.725-49.9 0-107.3 6.472-130.241 20.815a160.225 160.225 0 0 0 -79.156-20.815c-88.9 0-161.225 72.325-161.225 161.225s72.325 161.225 161.225 161.225a160.228 160.228 0 0 0 79.151-20.812c22.942 14.341 80.35 20.812 130.246 20.812 36.184 0 70.285-3.1 96.021-8.725 30.521-6.673 45.357-15.974 45.357-28.434v-248.132c0-12.461-14.836-21.762-45.357-28.434zm29.357 193.56c-.582.906-5.931 7.74-36.729 13.927-24.16 4.854-55.643 7.527-88.649 7.527a546.145 546.145 0 0 1 -59.514-3.112 160.405 160.405 0 0 0 11.341-59.402c0-2.061-.052-4.109-.129-6.151 15.39 1.291 31.585 1.954 48.3 1.954 36.184 0 70.285-3.1 96.021-8.725q18.489-4.042 29.357-9.406zm0-82.711c-.581.905-5.929 7.739-36.729 13.927-24.16 4.854-55.643 7.527-88.649 7.527-17.275 0-33.968-.716-49.726-2.128a160.294 160.294 0 0 0 -27.48-69.861c22.526 3.433 49.15 5.278 77.206 5.278 36.184 0 70.285-3.1 96.021-8.725q18.489-4.042 29.357-9.406zm-125.378-103.574c33.006 0 64.489 2.673 88.649 7.527 28.531 5.732 35.219 12.017 36.512 13.632-1.292 1.614-7.978 7.9-36.512 13.631-24.16 4.854-55.643 7.527-88.649 7.527-34.844 0-68.511-3.06-92.887-8.419a162.616 162.616 0 0 0 -21.828-19.081c19.273-7.882 60.643-14.817 114.715-14.817zm-354.622 145.225c0-80.077 65.147-145.225 145.225-145.225s145.224 65.148 145.224 145.225-65.149 145.225-145.224 145.225-145.225-65.148-145.225-145.225zm443.271 137.7c-24.16 4.854-55.643 7.527-88.649 7.527-54.068 0-95.441-6.934-114.718-14.814a162.381 162.381 0 0 0 48.168-55.726 552.078 552.078 0 0 0 66.55 3.829c36.184 0 70.285-3.1 96.021-8.725q18.489-4.043 29.357-9.406v63.385c-.587.913-5.948 7.744-36.729 13.93zm-238.122-222.958-103.067 178.516a8 8 0 1 1 -13.856-8l103.066-178.516a8 8 0 1 1 13.857 8zm-113.536 40.776h-28.777a8 8 0 1 1 0-16h28.777v-28.776a8 8 0 0 1 16 0v28.776h28.776a8 8 0 0 1 0 16h-28.776v28.776a8 8 0 1 1 -16 0zm144 107.188a8 8 0 0 1 -8 8h-73.552a8 8 0 0 1 0-16h73.552a8 8 0 0 1 8 8z"/></svg>