<svg id="Layer_1" viewBox="0 0 512 512" xmlns="http://www.w3.org/2000/svg" data-name="Layer 1"><path d="m466.644 103.5c-25.737-5.626-59.838-8.725-96.022-8.725-49.9 0-107.3 6.472-130.241 20.815a160.225 160.225 0 0 0 -79.156-20.815c-88.9 0-161.225 72.325-161.225 161.225s72.325 161.225 161.225 161.225a160.228 160.228 0 0 0 79.151-20.812c22.942 14.341 80.35 20.812 130.246 20.812 36.185 0 70.285-3.1 96.022-8.725 30.52-6.673 45.356-15.974 45.356-28.435v-248.131c0-12.461-14.836-21.761-45.356-28.434zm29.356 193.56c-.582.906-5.931 7.739-36.729 13.927-24.16 4.854-55.643 7.527-88.649 7.527a546.5 546.5 0 0 1 -59.515-3.112 160.386 160.386 0 0 0 11.342-59.402c0-2.061-.052-4.109-.129-6.151 15.387 1.29 31.581 1.954 48.3 1.954 36.184 0 70.285-3.1 96.022-8.725q18.489-4.042 29.356-9.406zm0-82.711c-.582.906-5.931 7.739-36.729 13.927-24.16 4.854-55.643 7.527-88.649 7.527-17.279 0-33.973-.717-49.726-2.129a160.3 160.3 0 0 0 -27.48-69.86c22.526 3.434 49.151 5.279 77.206 5.279 36.185 0 70.285-3.1 96.022-8.725q18.489-4.042 29.356-9.406zm-125.378-103.574c33.006 0 64.489 2.673 88.649 7.527 28.53 5.732 35.218 12.017 36.512 13.632-1.293 1.614-7.978 7.9-36.511 13.631-24.16 4.855-55.643 7.528-88.65 7.528-34.844 0-68.511-3.061-92.888-8.421a162.53 162.53 0 0 0 -21.827-19.08c19.273-7.881 60.644-14.817 114.715-14.817zm-354.622 145.225c0-80.077 65.147-145.225 145.225-145.225s145.224 65.148 145.224 145.225-65.149 145.225-145.224 145.225-145.225-65.148-145.225-145.225zm443.272 137.7c-24.16 4.855-55.643 7.528-88.65 7.528-54.068 0-95.441-6.935-114.718-14.815a162.369 162.369 0 0 0 48.168-55.725 552.151 552.151 0 0 0 66.55 3.829c36.184 0 70.285-3.1 96.022-8.725q18.489-4.043 29.356-9.406v63.384c-.586.912-5.946 7.743-36.728 13.93zm-205.547-137.7a8 8 0 0 1 -8 8h-76.5v76.5a8 8 0 0 1 -16 0v-76.5h-76.5a8 8 0 0 1 0-16h76.5v-76.5a8 8 0 0 1 16 0v76.5h76.5a8 8 0 0 1 8 8z"/></svg>