<svg id="OBJECT" viewBox="0 0 512 512" xmlns="http://www.w3.org/2000/svg"><path d="m330 165c0-91-74-165-165-165s-165 74-165 165 74 165 165 165 165-74 165-165zm-140.12-54a15 15 0 1 1 30 0v9.17a15 15 0 0 1 -30 0zm-82.5 0a15 15 0 1 1 30 0v9.17a15 15 0 0 1 -30 0zm119.33 108.48a138.65 138.65 0 0 1 -123.42 0 15 15 0 1 1 13.42-26.83 108.55 108.55 0 0 0 96.58 0 15 15 0 1 1 13.42 26.83z"/><path d="m359.21 182.45c-8.34 93.63-83.13 168.42-176.76 176.76 6.27 85.3 77.68 152.79 164.55 152.79 91 0 165-74 165-165 0-86.87-67.49-158.28-152.79-164.55zm12.67 117a15 15 0 1 1 30 0v9.16a15 15 0 0 1 -30 0zm43.54 101.81a15 15 0 0 1 -20.13 6.74 108.49 108.49 0 0 0 -96.58 0 15 15 0 1 1 -13.42-26.83 138.65 138.65 0 0 1 123.42 0 15 15 0 0 1 6.71 20.09z"/></svg>