<?xml version="1.0" encoding="UTF-8"?>
<svg xmlns="http://www.w3.org/2000/svg" xmlns:xlink="http://www.w3.org/1999/xlink" version="1.1" id="Capa_1" x="0px" y="0px" viewBox="0 0 512 512" style="enable-background:new 0 0 512 512;" xml:space="preserve" width="current" height="current">
<g>
	<path style="fill:none;stroke-width:15;stroke-linecap:round;stroke-linejoin:round;stroke-miterlimit:10;" d="&#10;&#9;&#9;M61.014,101.943C27.509,144.292,7.5,197.807,7.5,256c0,137.243,111.257,248.5,248.5,248.5c89.686,0,168.266-47.517,211.962-118.744&#10;&#9;&#9; M481.657,360.176C496.31,328.49,504.5,293.204,504.5,256C504.5,118.757,393.243,7.5,256,7.5&#10;&#9;&#9;c-68.586,0-130.681,27.786-175.645,72.715 M137.618,348.926l-45.32,45.32C60.752,356.929,41.722,308.691,41.722,256&#10;&#9;&#9;c0-118.342,95.935-214.278,214.278-214.278c52.691,0,100.93,19.03,138.246,50.576l-78.83,78.83 M335.918,201.537l83.784-83.784&#10;&#9;&#9;c31.546,37.317,50.576,85.556,50.576,138.247c0,118.343-95.935,214.278-214.278,214.278c-52.691,0-100.93-19.03-138.247-50.576&#10;&#9;&#9;l49.614-49.614"/>
	<path style="fill:none;stroke-width:15;stroke-linecap:round;stroke-linejoin:round;stroke-miterlimit:10;" d="&#10;&#9;&#9;M329.323,320.386h69.643c7.929,0,14.357,6.428,14.357,14.357v17.673c0,7.929-6.428,14.357-14.357,14.357H278.669"/>
	<path style="fill:none;stroke-width:15;stroke-linecap:round;stroke-linejoin:round;stroke-miterlimit:10;" d="&#10;&#9;&#9;M347.268,274h51.699c7.929,0,14.357,6.428,14.357,14.357v17.673c0,7.929-6.428,14.357-14.357,14.357h-68.212"/>
	<path style="fill:none;stroke-width:15;stroke-linecap:round;stroke-linejoin:round;stroke-miterlimit:10;" d="&#10;&#9;&#9;M345.488,227.614h53.478c7.929,0,14.357,6.428,14.357,14.357v17.673c0,7.929-6.428,14.357-14.357,14.357h-51.478"/>
	<g>
		<path style="fill:none;stroke-width:15;stroke-linecap:round;stroke-linejoin:round;stroke-miterlimit:10;" d="&#10;&#9;&#9;&#9;M235.96,213.905c-4.619-1.869-12.204-3.648-21.321-0.902c-13.979,4.211-17.451,23.338-7.951,30.789&#10;&#9;&#9;&#9;c5.455,4.278,13.662,7.796,24.723,11.706c24.757,8.751,15.605,43.664-9.578,43.832c-9.828,0.065-14.422-0.558-23.055-6.206"/>
		
			<line style="fill:none;stroke-width:15;stroke-linecap:round;stroke-linejoin:round;stroke-miterlimit:10;" x1="221.833" y1="301.847" x2="221.833" y2="312.074"/>
		
			<line style="fill:none;stroke-width:15;stroke-linecap:round;stroke-linejoin:round;stroke-miterlimit:10;" x1="221.833" y1="199.926" x2="221.833" y2="208.691"/>
	</g>
	<path style="fill:none;stroke-width:15;stroke-linecap:round;stroke-linejoin:round;stroke-miterlimit:10;" d="&#10;&#9;&#9;M223.468,379.696c67.824-0.582,122.629-55.734,122.629-123.696c0-68.323-55.387-123.71-123.71-123.71S98.677,187.677,98.677,256&#10;&#9;&#9;c0,58.722,40.914,107.888,95.791,120.546"/>
	
		<circle style="fill:none;stroke-width:15;stroke-linecap:round;stroke-linejoin:round;stroke-miterlimit:10;" cx="222.386" cy="256" r="89.223"/>
</g>















</svg>
