<?xml version="1.0" encoding="UTF-8" standalone="no"?>
<!-- Created with Inkscape (http://www.inkscape.org/) -->

<svg
   version="1.1"
   id="svg1323"
   xml:space="preserve"
   viewBox="0 0 682.66669 682.66669"
   xmlns="http://www.w3.org/2000/svg"
   xmlns:svg="http://www.w3.org/2000/svg"><defs
     id="defs1327"><clipPath
       clipPathUnits="userSpaceOnUse"
       id="clipPath1337"><path
         d="M 0,512 H 512 V 0 H 0 Z"
         id="path1335" /></clipPath></defs><g
     id="g1329"
     transform="matrix(1.3333333,0,0,-1.3333333,0,682.66667)"><g
       id="g1331"><g
         id="g1333"
         clip-path="url(#clipPath1337)"><g
           id="g1339"
           transform="translate(366.0771,356.001)"><path
             d="m 0,0 h -336.078 c -11,0 -20,9 -20,20 v 0 c 0,11 8.999,20 20,20 H -3.101 m 86.899,0 h 32.125 c 11.001,0 20,-9 20,-20 v 0 c 0,-11 -9,-20 -20,-20 H 80.696"
             style="fill:none;stroke:inherit;stroke-width:20;stroke-linecap:round;stroke-linejoin:round;stroke-miterlimit:22.926;stroke-dasharray:none;stroke-opacity:1"
             id="path1341" /></g><g
           id="g1343"
           transform="translate(482.0005,356.001)"><path
             d="M 0,0 V -320 H -452.001 V 0"
             style="fill:none;stroke:inherit;stroke-width:20;stroke-linecap:round;stroke-linejoin:round;stroke-miterlimit:22.926;stroke-dasharray:none;stroke-opacity:1"
             id="path1345" /></g><g
           id="g1347"
           transform="translate(256,436.0005)"><path
             d="M 0,0 C 11.016,0 20,8.984 20,20 20,31.016 11.016,40 0,40 -11.016,40 -20,31.016 -20,20 -20,8.984 -11.016,0 0,0 Z"
             style="fill:none;stroke:inherit;stroke-width:20;stroke-linecap:round;stroke-linejoin:round;stroke-miterlimit:22.926;stroke-dasharray:none;stroke-opacity:1"
             id="path1349" /></g><g
           id="g1351"
           transform="translate(235.8999,455.9004)"><path
             d="M 0,0 -59.174,-59.174"
             style="fill:none;stroke:inherit;stroke-width:20;stroke-linecap:round;stroke-linejoin:round;stroke-miterlimit:22.926;stroke-dasharray:none;stroke-opacity:1"
             id="path1353" /></g><g
           id="g1355"
           transform="translate(276.0996,455.9004)"><path
             d="M 0,0 58.175,-58.174"
             style="fill:none;stroke:inherit;stroke-width:20;stroke-linecap:round;stroke-linejoin:round;stroke-miterlimit:22.926;stroke-dasharray:none;stroke-opacity:1"
             id="path1357" /></g><g
           id="g1359"
           transform="translate(185.999,211.0171)"><path
             d="M 0,0 V 9.508"
             style="fill:none;stroke:inherit;stroke-width:20;stroke-linecap:round;stroke-linejoin:round;stroke-miterlimit:22.926;stroke-dasharray:none;stroke-opacity:1"
             id="path1361" /></g><g
           id="g1363"
           transform="translate(326,211.0171)"><path
             d="M 0,0 V 9.508"
             style="fill:none;stroke:inherit;stroke-width:20;stroke-linecap:round;stroke-linejoin:round;stroke-miterlimit:22.926;stroke-dasharray:none;stroke-opacity:1"
             id="path1365" /></g><g
           id="g1367"
           transform="translate(222.3237,152.8394)"><path
             d="M 0,0 C 8.931,8.931 21.045,13.949 33.676,13.949 46.307,13.949 58.42,8.931 67.352,0"
             style="fill:none;stroke:inherit;stroke-width:20;stroke-linecap:round;stroke-linejoin:round;stroke-miterlimit:22.926;stroke-dasharray:none;stroke-opacity:1"
             id="path1369" /></g><g
           id="g1371"
           transform="translate(406.1758,445.9995)"><path
             d="m 0,0 c -10.449,0 -44.458,-37.974 -44.458,-67.191 0,-24.193 20.09,-44.905 44.458,-44.811 24.368,-0.094 44.458,20.618 44.458,44.811 C 44.458,-37.974 10.449,0 0,0 Z"
             style="fill:none;stroke:inherit;stroke-width:20;stroke-linecap:round;stroke-linejoin:round;stroke-miterlimit:22.926;stroke-dasharray:none;stroke-opacity:1"
             id="path1373" /></g><g
           id="g1375"
           transform="translate(84.9951,76.0024)"><path
             d="m 0,0 h -50.496 m 95.5,0 h -0.007"
             style="fill:none;stroke:inherit;stroke-width:20;stroke-linecap:round;stroke-linejoin:round;stroke-miterlimit:22.926;stroke-dasharray:none;stroke-opacity:1"
             id="path1377" /></g></g></g></g></svg>
