<?xml version="1.0" encoding="iso-8859-1"?>
<!-- Generator: Adobe Illustrator 16.0.0, SVG Export Plug-In . SVG Version: 6.00 Build 0)  -->
<!DOCTYPE svg PUBLIC "-//W3C//DTD SVG 1.1//EN" "http://www.w3.org/Graphics/SVG/1.1/DTD/svg11.dtd">
<svg version="1.1" id="Capa_1" xmlns="http://www.w3.org/2000/svg" xmlns:xlink="http://www.w3.org/1999/xlink"
	 viewBox="0 0 93.963 93.963" style="enable-background:new 0 0 93.963 93.963;"
	 xml:space="preserve">
<g>
	<g fill="current">
		<rect x="14.856" y="17.021" width="79.067" height="10.896"/>
		<rect x="14.788" y="41.848" width="79.175" height="10.896"/>
		<rect x="14.625" y="67.383" width="79.299" height="10.895"/>
		<path d="M4.045,15.537c0.238-0.207,0.438-0.395,0.603-0.565c-0.057,0.705-0.087,1.659-0.087,2.861v10.083h2.511V12.301H4.976
			l-4.59,3.61l1.262,1.59C3.007,16.398,3.805,15.745,4.045,15.537z"/>
		<path d="M3.328,51.341l2.804-2.718c1.262-1.186,2.16-2.126,2.704-2.823c0.541-0.696,0.941-1.372,1.202-2.027
			c0.262-0.656,0.394-1.349,0.394-2.077c0-1.326-0.452-2.381-1.357-3.166c-0.907-0.785-2.112-1.177-3.613-1.177
			c-0.959,0-1.862,0.158-2.708,0.475c-0.848,0.316-1.721,0.854-2.619,1.613l1.405,1.712c0.757-0.596,1.426-1.009,2.003-1.237
			c0.58-0.229,1.178-0.343,1.797-0.343c0.772,0,1.38,0.21,1.816,0.63c0.438,0.42,0.657,0.994,0.657,1.724
			c0,0.53-0.091,1.027-0.275,1.491c-0.184,0.465-0.478,0.96-0.878,1.486c-0.402,0.527-1.219,1.42-2.448,2.679l-4.166,4.188v1.967
			h10.951V51.45H3.328V51.341z"/>
		<path d="M6.973,73.022v-0.09c1.084-0.234,1.921-0.693,2.519-1.375c0.599-0.682,0.895-1.533,0.895-2.558
			c0-1.229-0.455-2.194-1.369-2.896c-0.912-0.699-2.183-1.049-3.811-1.049c-1.961,0-3.682,0.545-5.162,1.635l1.271,1.812
			C2.088,68,2.759,67.665,3.328,67.491c0.566-0.174,1.155-0.26,1.767-0.26c0.876,0,1.54,0.188,1.99,0.563
			c0.447,0.376,0.673,0.911,0.673,1.603c0,1.783-1.289,2.674-3.868,2.674H2.464v2.109h1.402c1.467,0,2.542,0.203,3.229,0.608
			C7.78,75.194,8.12,75.828,8.12,76.69c0,0.973-0.309,1.689-0.928,2.153c-0.618,0.464-1.553,0.696-2.806,0.696
			c-0.707,0-1.443-0.092-2.21-0.275C1.41,79.08,0.685,78.819,0,78.479v2.309c1.23,0.583,2.74,0.874,4.529,0.874
			c2.026,0,3.586-0.421,4.687-1.267c1.096-0.843,1.644-2.041,1.644-3.596c0-1.068-0.322-1.924-0.971-2.568
			C9.24,73.587,8.269,73.184,6.973,73.022z"/>
	</g>
</g>
<g>
</g>
<g>
</g>
<g>
</g>
<g>
</g>
<g>
</g>
<g>
</g>
<g>
</g>
<g>
</g>
<g>
</g>
<g>
</g>
<g>
</g>
<g>
</g>
<g>
</g>
<g>
</g>
<g>
</g>
</svg>
