<svg viewBox="0 0 512 512" xmlns="http://www.w3.org/2000/svg"><g id="Layer_9" data-name="Layer 9"><path d="m239.49 512a238.64 238.64 0 0 1 -169.59-407.39 236.9 236.9 0 0 1 155.42-69.53 12.61 12.61 0 0 1 13.32 12.59v63.8a12.61 12.61 0 0 1 -11.64 12.53c-77.52 6-138.68 71.32-138.08 150.5.63 81.46 67.14 148 148.6 148.6 79.18.6 144.48-60.56 150.5-138.08a12.61 12.61 0 0 1 12.56-11.69h63.8a12.61 12.61 0 0 1 12.59 13.3 238.66 238.66 0 0 1 -237.48 225.37z"/><path d="m499.39 238h-64.8a12.63 12.63 0 0 1 -12.59-11.75c-5.6-73.25-63.41-131.91-136.59-137.6a12.64 12.64 0 0 1 -11.71-12.57v-63.8a12.62 12.62 0 0 1 13.3-12.59 238.66 238.66 0 0 1 225 225 12.62 12.62 0 0 1 -12.61 13.31z"/><path d="m283.57 181.39h-.18a12.38 12.38 0 0 0 -10.45 6c-29.79 46.5-61.08 93.2-89.5 138.28-3.87 6.14-2.14 14.71 3.8 19.2s13.78 3.2 17.62-3c28.31-45.37 59.48-92.14 89.15-138.5 5.99-9.23-.22-21.98-10.44-21.98z"/><path d="m321.92 282.07c-8.15-8.6-18-12.89-29.27-12.89s-21.06 4.36-29.28 12.91-12.26 18.91-12.17 31.17 4.22 22.86 12.23 31.4 17.57 12.87 28.81 12.84c11.42 0 21.14-4.33 29.26-12.82s12.36-19 12.51-31.52a42.61 42.61 0 0 0 -12.09-31.09zm-18.81 43.93a13.27 13.27 0 0 1 -10.54 5 13.68 13.68 0 0 1 -10.76-4.8c-2.78-3.24-4.19-7.46-4.2-12.8a17.53 17.53 0 0 1 4.31-12.25 14.2 14.2 0 0 1 21.3 0 17.85 17.85 0 0 1 4.14 12.24q-.05 7.61-4.25 12.61z"/><path d="m210.45 191.83c-7.81-8.41-17.18-12.39-28.3-12.05s-20.86 5-29.42 13.55-13.13 18.76-13.54 30.6 3.43 22 11.4 30.23a41 41 0 0 0 58.92-.14q12.24-12.59 12.49-31.35c.18-12.12-3.68-22.43-11.55-30.84zm-19.52 43.66a14.39 14.39 0 0 1 -21.43.37c-2.73-3.13-4-7.23-3.9-12.45a17.8 17.8 0 0 1 4.68-12.07 14.56 14.56 0 0 1 10.8-5 12.67 12.67 0 0 1 10.38 4.54c2.69 3.13 4 7.15 3.89 12a19 19 0 0 1 -4.42 12.61z"/></g></svg>