<?xml version="1.0" encoding="iso-8859-1"?>
<!-- Generator: Adobe Illustrator 19.0.0, SVG Export Plug-In . SVG Version: 6.00 Build 0)  -->
<svg version="1.1" id="Capa_1" xmlns="http://www.w3.org/2000/svg" xmlns:xlink="http://www.w3.org/1999/xlink" x="0px" y="0px"
	 viewBox="0 0 511.999 511.999" style="enable-background:new 0 0 511.999 511.999;" xml:space="preserve">
<g>
	<g>
		<path d="M509.588,117.341L387.513,3.001c-2.93-2.744-7.487-2.744-10.417,0l-122.075,114.34c-2.283,2.137-3.026,5.453-1.877,8.361
			c1.149,2.907,3.959,4.819,7.086,4.819h48.033v20.535c0,4.208,3.411,7.619,7.619,7.619s7.619-3.411,7.619-7.619v-28.153
			c0-4.208-3.411-7.619-7.619-7.619h-36.373l102.796-96.282L485.1,115.283h-36.372c-4.208,0-7.619,3.411-7.619,7.619v260.784
			c0,4.208,3.411,7.619,7.619,7.619c4.208,0,7.619-3.411,7.619-7.619V130.521h48.033c3.127,0,5.937-1.911,7.086-4.819
			C512.615,122.793,511.871,119.478,509.588,117.341z"/>
	</g>
</g>
<g>
	<g>
		<path d="M448.728,406.543c-4.208,0-7.619,3.411-7.619,7.619v81.655H323.501v-6.481c0-4.208-3.411-7.619-7.619-7.619
			s-7.619,3.411-7.619,7.619v14.1c0,4.208,3.411,7.619,7.619,7.619h132.847c4.208,0,7.619-3.411,7.619-7.619v-89.273
			C456.347,409.955,452.936,406.543,448.728,406.543z"/>
	</g>
</g>
<g>
	<g>
		<path d="M191.428,128.2c-4.208,0-7.619,3.411-7.619,7.619c0,4.208,3.411,7.619,7.619,7.619c97.151,0,176.19,79.039,176.19,176.19
			s-79.039,176.19-176.19,176.19s-176.19-79.039-176.19-176.19c0-83.82,59.571-156.496,141.647-172.807
			c4.127-0.82,6.808-4.83,5.987-8.958c-0.82-4.127-4.828-6.81-8.958-5.987C64.73,149.599,0,228.56,0,319.628
			c0,105.554,85.874,191.428,191.428,191.428s191.428-85.874,191.428-191.428S296.982,128.2,191.428,128.2z"/>
	</g>
</g>
<g>
	<g>
		<path d="M301.298,209.758c-60.583-60.583-159.157-60.582-219.739,0c-60.583,60.582-60.583,159.156,0,219.739
			c30.291,30.291,70.08,45.437,109.87,45.437c39.789,0,79.578-15.145,109.869-45.437
			C361.881,368.914,361.881,270.34,301.298,209.758z M290.523,418.721c-54.641,54.641-143.549,54.642-198.19,0
			c-54.641-54.641-54.641-143.549,0-198.19c27.32-27.32,63.208-40.981,99.095-40.981c35.887,0,71.774,13.66,99.095,40.981
			C345.164,275.173,345.164,364.081,290.523,418.721z"/>
	</g>
</g>
<g>
	<g>
		<path d="M199.048,312.502v-56.117c15.812,2.785,27.68,14.044,27.68,27.478c0,4.208,3.411,7.619,7.619,7.619
			c4.208,0,7.619-3.411,7.619-7.619c0-21.699-18.654-39.726-42.918-42.889v-7.18c0-4.208-3.411-7.619-7.619-7.619
			c-4.208,0-7.619,3.411-7.619,7.619v7.18c-24.264,3.163-42.918,21.191-42.918,42.889s18.654,39.727,42.918,42.891v56.117
			c-15.813-2.788-27.68-14.046-27.68-27.479c0-4.208-3.411-7.619-7.619-7.619s-7.619,3.411-7.619,7.619
			c0,21.699,18.654,39.726,42.918,42.889v7.18c0,4.208,3.411,7.619,7.619,7.619c4.208,0,7.619-3.411,7.619-7.619v-7.18
			c24.264-3.163,42.918-21.191,42.918-42.889S223.312,315.666,199.048,312.502z M183.81,311.34
			c-15.813-2.786-27.68-14.044-27.68-27.478c0-13.434,11.867-24.692,27.68-27.478V311.34z M199.047,382.87v-54.956
			c15.813,2.785,27.68,14.044,27.68,27.478S214.86,380.084,199.047,382.87z"/>
	</g>
</g>
<g>
</g>
<g>
</g>
<g>
</g>
<g>
</g>
<g>
</g>
<g>
</g>
<g>
</g>
<g>
</g>
<g>
</g>
<g>
</g>
<g>
</g>
<g>
</g>
<g>
</g>
<g>
</g>
<g>
</g>
</svg>
