<?xml version="1.0" encoding="iso-8859-1"?>
<!-- Generator: Adobe Illustrator 19.0.0, SVG Export Plug-In . SVG Version: 6.00 Build 0)  -->
<svg version="1.1" id="Capa_1" xmlns="http://www.w3.org/2000/svg" xmlns:xlink="http://www.w3.org/1999/xlink" x="0px" y="0px"
	 viewBox="0 0 512 512" style="enable-background:new 0 0 512 512;" xml:space="preserve">
<g>
	<g>
		<path d="M256,0C114.848,0,0,114.848,0,256s114.848,256,256,256s256-114.848,256-256S397.152,0,256,0z M128,192
			c0-17.632,14.368-32,32-32s32,14.368,32,32s-14.368,32-32,32S128,209.632,128,192z M369.12,389.504
			c-3.136,3.136-7.232,4.672-11.328,4.672s-8.192-1.568-11.328-4.672c-48.384-48.384-132.672-48.384-181.024,0
			c-6.24,6.24-16.384,6.24-22.624,0s-6.24-16.384,0-22.624C173.088,336.672,213.248,320,256,320s82.912,16.672,113.12,46.88
			C375.36,373.12,375.36,383.264,369.12,389.504z M352,224c-17.632,0-32-14.368-32-32s14.368-32,32-32c17.632,0,32,14.368,32,32
			S369.632,224,352,224z"/>
	</g>
</g>
<g>
</g>
<g>
</g>
<g>
</g>
<g>
</g>
<g>
</g>
<g>
</g>
<g>
</g>
<g>
</g>
<g>
</g>
<g>
</g>
<g>
</g>
<g>
</g>
<g>
</g>
<g>
</g>
<g>
</g>
</svg>
