<?xml version="1.0" encoding="iso-8859-1"?>
<!-- Generator: Adobe Illustrator 19.0.0, SVG Export Plug-In . SVG Version: 6.00 Build 0)  -->
<svg version="1.1" id="Capa_1" xmlns="http://www.w3.org/2000/svg" xmlns:xlink="http://www.w3.org/1999/xlink" x="0px" y="0px"
	 viewBox="0 0 512 512" style="enable-background:new 0 0 512 512;" xml:space="preserve">
<g>
	<g>
		<path d="M498.768,115.555L395.393,13.18C386.894,4.681,375.594,0,363.574,0C303.929,0,117.911,0,45,0C20.187,0,0,20.187,0,45v422
			c0,24.813,20.187,45,45,45c16.958,0,403.999,0,422,0c24.813,0,45-20.187,45-45V147.426
			C512,135.406,507.319,124.106,498.768,115.555z M241,30h30v60h-30V30z M121,30h90v75c0,8.284,6.716,15,15,15h60
			c8.284,0,15-6.716,15-15V30h30v105c0,8.271-6.729,15-15,15H136c-8.271,0-15-6.729-15-15V30z M391,482H121V332h270V482z M391,302
			H121v-15c0-8.271,6.729-15,15-15h240c8.271,0,15,6.729,15,15V302z M482,467c0,8.271-6.729,15-15,15h-46V287
			c0-24.813-20.187-45-45-45H136c-24.813,0-45,20.187-45,45v195H45c-8.271,0-15-6.729-15-15V45c0-8.271,6.729-15,15-15h46v105
			c0,24.813,20.187,45,45,45h180c24.813,0,45-20.187,45-45V30h2.574c4.006,0,7.773,1.56,10.658,4.445L477.607,136.82
			c2.833,2.833,4.393,6.6,4.393,10.606V467z"/>
	</g>
</g>
<g>
	<g>
		<path d="M346,362H166c-8.284,0-15,6.716-15,15s6.716,15,15,15h180c8.284,0,15-6.716,15-15S354.284,362,346,362z"/>
	</g>
</g>
<g>
	<g>
		<path d="M316,422H196c-8.284,0-15,6.716-15,15s6.716,15,15,15h120c8.284,0,15-6.716,15-15S324.284,422,316,422z"/>
	</g>
</g>
<g>
</g>
<g>
</g>
<g>
</g>
<g>
</g>
<g>
</g>
<g>
</g>
<g>
</g>
<g>
</g>
<g>
</g>
<g>
</g>
<g>
</g>
<g>
</g>
<g>
</g>
<g>
</g>
<g>
</g>
</svg>
