<?xml version="1.0" encoding="iso-8859-1"?>
<!-- Generator: Adobe Illustrator 19.0.0, SVG Export Plug-In . SVG Version: 6.00 Build 0)  -->
<svg version="1.1" id="Layer_1" xmlns="http://www.w3.org/2000/svg" xmlns:xlink="http://www.w3.org/1999/xlink" x="0px" y="0px"
	 viewBox="0 0 330 330" style="enable-background:new 0 0 330 330;" xml:space="preserve">
<path id="XMLID_28_" d="M165,0C74.019,0,0,74.019,0,165s74.019,165,165,165s165-74.019,165-165S255.981,0,165,0z M81,133
	c0-5.26,2.13-10.42,5.859-14.141C90.58,115.14,95.729,113,101,113c5.26,0,10.42,2.14,14.14,5.859C118.87,122.58,121,127.74,121,133
	c0,5.26-2.13,10.42-5.86,14.14c-3.72,3.729-8.88,5.86-14.14,5.86s-10.42-2.131-14.141-5.86C83.13,143.42,81,138.26,81,133z
	 M226.519,226.518c-16.959,16.959-39.242,25.441-61.519,25.441c-22.282,0-44.556-8.478-61.519-25.441
	c-5.858-5.857-5.858-15.354,0-21.213c5.857-5.857,15.355-5.857,21.213,0c22.226,22.225,58.386,22.225,80.611,0
	c5.857-5.857,15.355-5.857,21.213,0C232.377,211.163,232.377,220.66,226.519,226.518z M243.14,147.14
	c-3.72,3.729-8.88,5.86-14.14,5.86s-10.42-2.131-14.141-5.86C211.14,143.42,209,138.27,209,133s2.14-10.42,5.859-14.141
	C218.58,115.14,223.74,113,229,113s10.42,2.14,14.14,5.859c3.72,3.721,5.86,8.881,5.86,14.141
	C249,138.27,246.859,143.42,243.14,147.14z"/>
<g>
</g>
<g>
</g>
<g>
</g>
<g>
</g>
<g>
</g>
<g>
</g>
<g>
</g>
<g>
</g>
<g>
</g>
<g>
</g>
<g>
</g>
<g>
</g>
<g>
</g>
<g>
</g>
<g>
</g>
</svg>
