<svg  viewBox="0 0 381 286" fill="none" xmlns="http://www.w3.org/2000/svg">
<defs>
<linearGradient id="grad1" x1="50%" y1="100%" x2="100%" y2="0%">
        <stop offset="0%" stop-color="#6bd0b6" />
        <stop offset="50%" stop-color="#55CAC3" />
        <stop offset="90%" stop-color="#20a8d0" />
    </linearGradient>
<linearGradient id="grad2" x1="50%" y1="100%" x2="100%" y2="0%">
        <stop offset="0%" stop-color="#5BDA89" />
        <stop offset="50%" stop-color="#5BDAB0" />
        <stop offset="90%" stop-color="#5BDACB" />
    </linearGradient>
</defs>
<path d="M94.74 130.44C90.82 130.44 87.34 129.96 84.3 129C81.34 128.12 78.98 126.24 77.22 123.36C75.54 120.4 74.7 116.04 74.7 110.28V73.08C74.7 68.84 75.54 65.56 77.22 63.24C78.98 60.92 81.38 59.32 84.42 58.44C87.46 57.48 90.94 57 94.86 57C98.86 57 102.3 57.48 105.18 58.44C108.14 59.4 110.42 61.04 112.02 63.36C113.62 65.68 114.42 68.92 114.42 73.08V87.72H100.5V72.48C100.5 70.56 100.26 69.12 99.78 68.16C99.3 67.12 98.62 66.44 97.74 66.12C96.94 65.8 95.98 65.64 94.86 65.64C93.74 65.64 92.74 65.8 91.86 66.12C90.98 66.44 90.3 67.12 89.82 68.16C89.34 69.12 89.1 70.56 89.1 72.48V115.44C89.1 117.28 89.34 118.72 89.82 119.76C90.3 120.72 90.98 121.4 91.86 121.8C92.74 122.12 93.74 122.28 94.86 122.28C95.98 122.28 96.94 122.12 97.74 121.8C98.62 121.4 99.3 120.72 99.78 119.76C100.26 118.72 100.5 117.28 100.5 115.44V101.4H114.42V110.16C114.42 116 113.62 120.4 112.02 123.36C110.42 126.24 108.14 128.12 105.18 129C102.3 129.96 98.82 130.44 94.74 130.44ZM123.235 129V58.08H149.155C153.875 58.08 157.435 59.16 159.835 61.32C162.235 63.4 163.435 66.32 163.435 70.08V81.12C163.435 84.88 162.435 88.04 160.435 90.6C158.435 93.16 155.315 94.64 151.075 95.04C153.795 95.44 155.715 96.36 156.835 97.8C158.035 99.16 159.075 101.4 159.955 104.52L166.675 129H151.195L146.035 105.48C145.555 103.56 144.995 101.96 144.355 100.68C143.795 99.32 142.955 98.64 141.835 98.64H137.755V129H123.235ZM137.755 88.92H143.515C145.755 88.92 147.355 88.32 148.315 87.12C149.275 85.84 149.755 83.84 149.755 81.12V72.6C149.755 70.04 149.315 68.24 148.435 67.2C147.555 66.16 146.195 65.64 144.355 65.64H137.755V88.92ZM192.466 130.44C188.546 130.44 185.106 129.96 182.146 129C179.186 128.12 176.866 126.24 175.186 123.36C173.586 120.4 172.786 116.04 172.786 110.28V73.08C172.786 68.84 173.586 65.56 175.186 63.24C176.866 60.92 179.186 59.32 182.146 58.44C185.186 57.48 188.666 57 192.586 57C196.426 57 199.826 57.48 202.786 58.44C205.826 59.4 208.186 61.04 209.866 63.36C211.626 65.68 212.506 68.92 212.506 73.08V110.16C212.506 116 211.626 120.4 209.866 123.36C208.186 126.24 205.826 128.12 202.786 129C199.826 129.96 196.386 130.44 192.466 130.44ZM192.466 122.28C193.666 122.28 194.706 122.08 195.586 121.68C196.546 121.28 197.266 120.6 197.746 119.64C198.306 118.6 198.586 117.2 198.586 115.44V72.48C198.586 70.72 198.306 69.36 197.746 68.4C197.266 67.36 196.546 66.64 195.586 66.24C194.706 65.84 193.666 65.64 192.466 65.64C191.266 65.64 190.226 65.84 189.346 66.24C188.466 66.64 187.746 67.36 187.186 68.4C186.706 69.36 186.466 70.72 186.466 72.48V115.44C186.466 117.2 186.706 118.6 187.186 119.64C187.746 120.6 188.466 121.28 189.346 121.68C190.226 122.08 191.266 122.28 192.466 122.28ZM239.79 129.84C235.55 129.84 231.91 129.24 228.87 128.04C225.91 126.84 223.63 124.72 222.03 121.68C220.43 118.64 219.63 114.36 219.63 108.84V104.64C222.11 104.64 224.55 104.64 226.95 104.64C229.35 104.64 231.75 104.64 234.15 104.64V110.04C234.15 113 234.39 115.28 234.87 116.88C235.35 118.4 236.03 119.48 236.91 120.12C237.79 120.68 238.83 120.96 240.03 120.96C241.87 120.96 243.31 120.32 244.35 119.04C245.47 117.68 246.03 115.08 246.03 111.24C246.03 108.28 245.55 106.08 244.59 104.64C243.71 103.12 242.27 101.92 240.27 101.04C238.27 100.08 235.71 98.92 232.59 97.56C229.79 96.36 227.47 94.92 225.63 93.24C223.79 91.56 222.43 89.44 221.55 86.88C220.67 84.32 220.23 81.2 220.23 77.52C220.23 72.88 220.83 69.12 222.03 66.24C223.31 63.36 225.39 61.28 228.27 60C231.23 58.64 235.19 57.96 240.15 57.96C246.55 57.96 251.43 59.36 254.79 62.16C258.23 64.88 259.95 69 259.95 74.52V83.04C257.63 83.04 255.31 83.04 252.99 83.04C250.75 83.04 248.43 83.04 246.03 83.04V78.72C246.03 75.12 245.59 72.6 244.71 71.16C243.91 69.72 242.43 69 240.27 69C238.19 69 236.71 69.64 235.83 70.92C234.95 72.2 234.51 74.28 234.51 77.16C234.51 79.8 235.03 81.88 236.07 83.4C237.19 84.84 238.59 85.96 240.27 86.76C241.95 87.48 243.75 88.2 245.67 88.92C249.19 90.28 252.07 91.68 254.31 93.12C256.55 94.48 258.19 96.4 259.23 98.88C260.27 101.28 260.79 104.76 260.79 109.32C260.79 114.44 259.91 118.52 258.15 121.56C256.47 124.52 254.03 126.64 250.83 127.92C247.71 129.2 244.03 129.84 239.79 129.84ZM286.665 129.84C282.425 129.84 278.785 129.24 275.745 128.04C272.785 126.84 270.505 124.72 268.905 121.68C267.305 118.64 266.505 114.36 266.505 108.84V104.64C268.985 104.64 271.425 104.64 273.825 104.64C276.225 104.64 278.625 104.64 281.025 104.64V110.04C281.025 113 281.265 115.28 281.745 116.88C282.225 118.4 282.905 119.48 283.785 120.12C284.665 120.68 285.705 120.96 286.905 120.96C288.745 120.96 290.185 120.32 291.225 119.04C292.345 117.68 292.905 115.08 292.905 111.24C292.905 108.28 292.425 106.08 291.465 104.64C290.585 103.12 289.145 101.92 287.145 101.04C285.145 100.08 282.585 98.92 279.465 97.56C276.665 96.36 274.345 94.92 272.505 93.24C270.665 91.56 269.305 89.44 268.425 86.88C267.545 84.32 267.105 81.2 267.105 77.52C267.105 72.88 267.705 69.12 268.905 66.24C270.185 63.36 272.265 61.28 275.145 60C278.105 58.64 282.065 57.96 287.025 57.96C293.425 57.96 298.305 59.36 301.665 62.16C305.105 64.88 306.825 69 306.825 74.52V83.04C304.505 83.04 302.185 83.04 299.865 83.04C297.625 83.04 295.305 83.04 292.905 83.04V78.72C292.905 75.12 292.465 72.6 291.585 71.16C290.785 69.72 289.305 69 287.145 69C285.065 69 283.585 69.64 282.705 70.92C281.825 72.2 281.385 74.28 281.385 77.16C281.385 79.8 281.905 81.88 282.945 83.4C284.065 84.84 285.465 85.96 287.145 86.76C288.825 87.48 290.625 88.2 292.545 88.92C296.065 90.28 298.945 91.68 301.185 93.12C303.425 94.48 305.065 96.4 306.105 98.88C307.145 101.28 307.665 104.76 307.665 109.32C307.665 114.44 306.785 118.52 305.025 121.56C303.345 124.52 300.905 126.64 297.705 127.92C294.585 129.2 290.905 129.84 286.665 129.84ZM146.763 230.44C142.843 230.44 139.403 229.96 136.443 229C133.483 228.12 131.163 226.24 129.483 223.36C127.883 220.4 127.083 216.04 127.083 210.28V173.08C127.083 168.84 127.883 165.56 129.483 163.24C131.163 160.92 133.483 159.32 136.443 158.44C139.483 157.48 142.963 157 146.883 157C150.723 157 154.123 157.48 157.083 158.44C160.123 159.4 162.483 161.04 164.163 163.36C165.923 165.68 166.803 168.92 166.803 173.08V210.16C166.803 216 165.923 220.4 164.163 223.36C162.483 226.24 160.123 228.12 157.083 229C154.123 229.96 150.683 230.44 146.763 230.44ZM146.763 222.28C147.963 222.28 149.003 222.08 149.883 221.68C150.843 221.28 151.563 220.6 152.043 219.64C152.603 218.6 152.883 217.2 152.883 215.44V172.48C152.883 170.72 152.603 169.36 152.043 168.4C151.563 167.36 150.843 166.64 149.883 166.24C149.003 165.84 147.963 165.64 146.763 165.64C145.563 165.64 144.523 165.84 143.643 166.24C142.763 166.64 142.043 167.36 141.483 168.4C141.003 169.36 140.763 170.72 140.763 172.48V215.44C140.763 217.2 141.003 218.6 141.483 219.64C142.043 220.6 142.763 221.28 143.643 221.68C144.523 222.08 145.563 222.28 146.763 222.28ZM195.527 230.44C192.647 230.44 190.007 230.24 187.607 229.84C185.207 229.44 183.127 228.6 181.367 227.32C179.607 226.04 178.247 224.16 177.287 221.68C176.327 219.12 175.847 215.68 175.847 211.36V158.08H189.767V215.32C189.767 217 190.007 218.36 190.487 219.4C191.047 220.36 191.767 221 192.647 221.32C193.527 221.64 194.487 221.8 195.527 221.8C196.487 221.8 197.407 221.64 198.287 221.32C199.167 221 199.847 220.36 200.327 219.4C200.887 218.36 201.167 217 201.167 215.32V158.08H215.087V211.36C215.087 215.6 214.607 219 213.647 221.56C212.687 224.12 211.327 226.04 209.567 227.32C207.887 228.6 205.807 229.44 203.327 229.84C200.927 230.24 198.327 230.44 195.527 230.44ZM232.034 229V167.92H220.994V158.08H256.994V167.92H245.954V229H232.034Z" fill="url(#grad1)"/>
<path d="M316.113 139.664L313 130L320 130L316.113 139.664Z" fill="#0F766E"/>
<path d="M70 148.219L316.656 138.024L317.96 139.344L77.8418 159.394L70 148.219Z" fill="url(#grad2)"/>
<path d="M317 82H325L320 130H313L317 82Z" fill="#14B8A6"/>
</svg>
