<svg viewBox="0 0 405 286" fill="none" xmlns="http://www.w3.org/2000/svg">
<defs>
<linearGradient id="grad1_hor" x1="50%" y1="100%" x2="100%" y2="0%">
        <stop offset="0%" stop-color="#6bd0b6" />
        <stop offset="50%" stop-color="#55CAC3" />
        <stop offset="90%" stop-color="#20a8d0" />
    </linearGradient>
<linearGradient id="grad2_hor" x1="50%" y1="100%" x2="100%" y2="0%">
        <stop offset="0%" stop-color="#5BDA89" />
        <stop offset="50%" stop-color="#5BDAB0" />
        <stop offset="90%" stop-color="#5BDACB" />
    </linearGradient>
</defs>
<path d="M27.1228 180.44C23.2028 180.44 19.7228 179.96 16.6828 179C13.7228 178.12 11.3628 176.24 9.60281 173.36C7.92281 170.4 7.08281 166.04 7.08281 160.28V123.08C7.08281 118.84 7.92281 115.56 9.60281 113.24C11.3628 110.92 13.7628 109.32 16.8028 108.44C19.8428 107.48 23.3228 107 27.2428 107C31.2428 107 34.6828 107.48 37.5628 108.44C40.5228 109.4 42.8028 111.04 44.4028 113.36C46.0028 115.68 46.8028 118.92 46.8028 123.08V137.72H32.8828V122.48C32.8828 120.56 32.6428 119.12 32.1628 118.16C31.6828 117.12 31.0028 116.44 30.1228 116.12C29.3228 115.8 28.3628 115.64 27.2428 115.64C26.1228 115.64 25.1228 115.8 24.2428 116.12C23.3628 116.44 22.6828 117.12 22.2028 118.16C21.7228 119.12 21.4828 120.56 21.4828 122.48V165.44C21.4828 167.28 21.7228 168.72 22.2028 169.76C22.6828 170.72 23.3628 171.4 24.2428 171.8C25.1228 172.12 26.1228 172.28 27.2428 172.28C28.3628 172.28 29.3228 172.12 30.1228 171.8C31.0028 171.4 31.6828 170.72 32.1628 169.76C32.6428 168.72 32.8828 167.28 32.8828 165.44V151.4H46.8028V160.16C46.8028 166 46.0028 170.4 44.4028 173.36C42.8028 176.24 40.5228 178.12 37.5628 179C34.6828 179.96 31.2028 180.44 27.1228 180.44ZM55.6181 179V108.08H81.5381C86.2581 108.08 89.8181 109.16 92.2181 111.32C94.6181 113.4 95.8181 116.32 95.8181 120.08V131.12C95.8181 134.88 94.8181 138.04 92.8181 140.6C90.8181 143.16 87.6981 144.64 83.4581 145.04C86.1781 145.44 88.0981 146.36 89.2181 147.8C90.4181 149.16 91.4581 151.4 92.3381 154.52L99.0581 179H83.5781L78.4181 155.48C77.9381 153.56 77.3781 151.96 76.7381 150.68C76.1781 149.32 75.3381 148.64 74.2181 148.64H70.1381V179H55.6181ZM70.1381 138.92H75.8981C78.1381 138.92 79.7381 138.32 80.6981 137.12C81.6581 135.84 82.1381 133.84 82.1381 131.12V122.6C82.1381 120.04 81.6981 118.24 80.8181 117.2C79.9381 116.16 78.5781 115.64 76.7381 115.64H70.1381V138.92ZM124.849 180.44C120.929 180.44 117.489 179.96 114.529 179C111.569 178.12 109.249 176.24 107.569 173.36C105.969 170.4 105.169 166.04 105.169 160.28V123.08C105.169 118.84 105.969 115.56 107.569 113.24C109.249 110.92 111.569 109.32 114.529 108.44C117.569 107.48 121.049 107 124.969 107C128.809 107 132.209 107.48 135.169 108.44C138.209 109.4 140.569 111.04 142.249 113.36C144.009 115.68 144.889 118.92 144.889 123.08V160.16C144.889 166 144.009 170.4 142.249 173.36C140.569 176.24 138.209 178.12 135.169 179C132.209 179.96 128.769 180.44 124.849 180.44ZM124.849 172.28C126.049 172.28 127.089 172.08 127.969 171.68C128.929 171.28 129.649 170.6 130.129 169.64C130.689 168.6 130.969 167.2 130.969 165.44V122.48C130.969 120.72 130.689 119.36 130.129 118.4C129.649 117.36 128.929 116.64 127.969 116.24C127.089 115.84 126.049 115.64 124.849 115.64C123.649 115.64 122.609 115.84 121.729 116.24C120.849 116.64 120.129 117.36 119.569 118.4C119.089 119.36 118.849 120.72 118.849 122.48V165.44C118.849 167.2 119.089 168.6 119.569 169.64C120.129 170.6 120.849 171.28 121.729 171.68C122.609 172.08 123.649 172.28 124.849 172.28ZM172.173 179.84C167.933 179.84 164.293 179.24 161.253 178.04C158.293 176.84 156.013 174.72 154.413 171.68C152.813 168.64 152.013 164.36 152.013 158.84V154.64C154.493 154.64 156.933 154.64 159.333 154.64C161.733 154.64 164.133 154.64 166.533 154.64V160.04C166.533 163 166.773 165.28 167.253 166.88C167.733 168.4 168.413 169.48 169.293 170.12C170.173 170.68 171.213 170.96 172.413 170.96C174.253 170.96 175.693 170.32 176.733 169.04C177.853 167.68 178.413 165.08 178.413 161.24C178.413 158.28 177.933 156.08 176.973 154.64C176.093 153.12 174.653 151.92 172.653 151.04C170.653 150.08 168.093 148.92 164.973 147.56C162.173 146.36 159.853 144.92 158.013 143.24C156.173 141.56 154.813 139.44 153.933 136.88C153.053 134.32 152.613 131.2 152.613 127.52C152.613 122.88 153.213 119.12 154.413 116.24C155.693 113.36 157.773 111.28 160.653 110C163.613 108.64 167.573 107.96 172.533 107.96C178.933 107.96 183.813 109.36 187.173 112.16C190.613 114.88 192.333 119 192.333 124.52V133.04C190.013 133.04 187.693 133.04 185.373 133.04C183.133 133.04 180.813 133.04 178.413 133.04V128.72C178.413 125.12 177.973 122.6 177.093 121.16C176.293 119.72 174.813 119 172.653 119C170.573 119 169.093 119.64 168.213 120.92C167.333 122.2 166.893 124.28 166.893 127.16C166.893 129.8 167.413 131.88 168.453 133.4C169.573 134.84 170.973 135.96 172.653 136.76C174.333 137.48 176.133 138.2 178.053 138.92C181.573 140.28 184.453 141.68 186.693 143.12C188.933 144.48 190.573 146.4 191.613 148.88C192.653 151.28 193.173 154.76 193.173 159.32C193.173 164.44 192.293 168.52 190.533 171.56C188.853 174.52 186.413 176.64 183.213 177.92C180.093 179.2 176.413 179.84 172.173 179.84ZM219.048 179.84C214.808 179.84 211.168 179.24 208.128 178.04C205.168 176.84 202.888 174.72 201.288 171.68C199.688 168.64 198.888 164.36 198.888 158.84V154.64C201.368 154.64 203.808 154.64 206.208 154.64C208.608 154.64 211.008 154.64 213.408 154.64V160.04C213.408 163 213.648 165.28 214.128 166.88C214.608 168.4 215.288 169.48 216.168 170.12C217.048 170.68 218.088 170.96 219.288 170.96C221.128 170.96 222.568 170.32 223.608 169.04C224.728 167.68 225.288 165.08 225.288 161.24C225.288 158.28 224.808 156.08 223.848 154.64C222.968 153.12 221.528 151.92 219.528 151.04C217.528 150.08 214.968 148.92 211.848 147.56C209.048 146.36 206.728 144.92 204.888 143.24C203.048 141.56 201.688 139.44 200.808 136.88C199.928 134.32 199.488 131.2 199.488 127.52C199.488 122.88 200.088 119.12 201.288 116.24C202.568 113.36 204.648 111.28 207.528 110C210.488 108.64 214.448 107.96 219.408 107.96C225.808 107.96 230.688 109.36 234.048 112.16C237.488 114.88 239.208 119 239.208 124.52V133.04C236.888 133.04 234.568 133.04 232.248 133.04C230.008 133.04 227.688 133.04 225.288 133.04V128.72C225.288 125.12 224.848 122.6 223.968 121.16C223.168 119.72 221.688 119 219.528 119C217.448 119 215.968 119.64 215.088 120.92C214.208 122.2 213.768 124.28 213.768 127.16C213.768 129.8 214.288 131.88 215.328 133.4C216.448 134.84 217.848 135.96 219.528 136.76C221.208 137.48 223.008 138.2 224.928 138.92C228.448 140.28 231.328 141.68 233.568 143.12C235.808 144.48 237.448 146.4 238.488 148.88C239.528 151.28 240.048 154.76 240.048 159.32C240.048 164.44 239.168 168.52 237.408 171.56C235.728 174.52 233.288 176.64 230.088 177.92C226.968 179.2 223.288 179.84 219.048 179.84ZM266.763 180.44C262.843 180.44 259.403 179.96 256.443 179C253.483 178.12 251.163 176.24 249.483 173.36C247.883 170.4 247.083 166.04 247.083 160.28V123.08C247.083 118.84 247.883 115.56 249.483 113.24C251.163 110.92 253.483 109.32 256.443 108.44C259.483 107.48 262.963 107 266.883 107C270.723 107 274.123 107.48 277.083 108.44C280.123 109.4 282.483 111.04 284.163 113.36C285.923 115.68 286.803 118.92 286.803 123.08V160.16C286.803 166 285.923 170.4 284.163 173.36C282.483 176.24 280.123 178.12 277.083 179C274.123 179.96 270.683 180.44 266.763 180.44ZM266.763 172.28C267.963 172.28 269.003 172.08 269.883 171.68C270.843 171.28 271.563 170.6 272.043 169.64C272.603 168.6 272.883 167.2 272.883 165.44V122.48C272.883 120.72 272.603 119.36 272.043 118.4C271.563 117.36 270.843 116.64 269.883 116.24C269.003 115.84 267.963 115.64 266.763 115.64C265.563 115.64 264.523 115.84 263.643 116.24C262.763 116.64 262.043 117.36 261.483 118.4C261.003 119.36 260.763 120.72 260.763 122.48V165.44C260.763 167.2 261.003 168.6 261.483 169.64C262.043 170.6 262.763 171.28 263.643 171.68C264.523 172.08 265.563 172.28 266.763 172.28ZM315.527 180.44C312.647 180.44 310.007 180.24 307.607 179.84C305.207 179.44 303.127 178.6 301.367 177.32C299.607 176.04 298.247 174.16 297.287 171.68C296.327 169.12 295.847 165.68 295.847 161.36V108.08H309.767V165.32C309.767 167 310.007 168.36 310.487 169.4C311.047 170.36 311.767 171 312.647 171.32C313.527 171.64 314.487 171.8 315.527 171.8C316.487 171.8 317.407 171.64 318.287 171.32C319.167 171 319.847 170.36 320.327 169.4C320.887 168.36 321.167 167 321.167 165.32V108.08H335.087V161.36C335.087 165.6 334.607 169 333.647 171.56C332.687 174.12 331.327 176.04 329.567 177.32C327.887 178.6 325.807 179.44 323.327 179.84C320.927 180.24 318.327 180.44 315.527 180.44ZM352.034 179V117.92H340.994V108.08H376.994V117.92H365.954V179H352.034Z" fill="url(#grad1_hor)"/>
<path d="M395.871 185.121L392 174L400 174L395.871 185.121Z" fill="#0F766E"/>
<path d="M9 199.902L394.944 183.95L396.984 186.016L21.2701 217.387L9 199.902Z" fill="url(#grad2_hor)"/>
<path d="M396 129H404.5L400 174H392L396 129Z" fill="#14B8A6"/>
</svg>
